 <svg width="60" height="216" viewBox="0 0 60 216" fill="none" xmlns="http://www.w3.org/2000/svg">
<rect y="29.2331" width="59.2782" height="156.722" fill="#17A0FB"/>
<circle cx="29.6391" cy="29.6391" r="29.6391" fill="#17A0FB"/>
<circle cx="29.6391" cy="186.361" r="29.6391" fill="#17A0FB"/>
<circle cx="30.0451" cy="30.8571" r="25.1729" fill="black" fill-opacity="0.6"/>
<path d="M36.24 172.109C36.24 173.304 35.9787 174.312 35.456 175.133C34.9333 175.954 34.24 176.573 33.376 176.989C32.512 177.394 31.568 177.597 30.544 177.597C29.52 177.597 28.5813 177.384 27.728 176.957C26.8747 176.53 26.192 175.89 25.68 175.037C25.168 174.184 24.912 173.144 24.912 171.917C24.912 171.202 25.0293 170.536 25.264 169.917C25.488 169.288 25.808 168.754 26.224 168.317L27.2 168.925C26.848 169.266 26.5707 169.704 26.368 170.237C26.1547 170.77 26.048 171.33 26.048 171.917C26.048 172.813 26.2453 173.576 26.64 174.205C27.0347 174.834 27.5733 175.314 28.256 175.645C28.9387 175.965 29.7067 176.125 30.56 176.125C31.4347 176.125 32.2133 175.97 32.896 175.661C33.5787 175.352 34.1173 174.898 34.512 174.301C34.9067 173.693 35.104 172.962 35.104 172.109C35.104 170.797 34.6027 169.661 33.6 168.701L34.56 168.157C35.0507 168.637 35.456 169.213 35.776 169.885C36.0853 170.557 36.24 171.298 36.24 172.109ZM36.256 161.175C36.256 162.306 36.0053 163.277 35.504 164.087C34.992 164.887 34.304 165.49 33.44 165.895C32.576 166.301 31.6213 166.503 30.576 166.503C29.5307 166.503 28.5813 166.301 27.728 165.895C26.864 165.49 26.1813 164.887 25.68 164.087C25.168 163.277 24.912 162.306 24.912 161.175C24.912 160.045 25.168 159.079 25.68 158.279C26.1813 157.469 26.864 156.861 27.728 156.455C28.5813 156.05 29.5253 155.847 30.56 155.847C31.616 155.847 32.576 156.05 33.44 156.455C34.304 156.861 34.992 157.469 35.504 158.279C36.0053 159.079 36.256 160.045 36.256 161.175ZM35.104 161.175C35.104 160.365 34.912 159.671 34.528 159.095C34.1333 158.519 33.5947 158.082 32.912 157.783C32.2187 157.485 31.44 157.335 30.576 157.335C29.712 157.335 28.9387 157.485 28.256 157.783C27.5733 158.082 27.0347 158.525 26.64 159.111C26.2453 159.687 26.048 160.375 26.048 161.175C26.048 161.986 26.2453 162.685 26.64 163.271C27.0347 163.847 27.5733 164.285 28.256 164.583C28.9387 164.882 29.712 165.031 30.576 165.031C31.44 165.031 32.2187 164.882 32.912 164.583C33.5947 164.285 34.1333 163.847 34.528 163.271C34.912 162.685 35.104 161.986 35.104 161.175ZM25.12 144.37L36 144.37L36.016 145.65L27.472 151.794L31.264 151.714L36 151.714L36 153.186L25.12 153.186L25.12 151.906L33.68 145.762L29.44 145.842L25.12 145.842L25.12 144.37ZM26.24 133.227L26.24 136.891L36 136.891L36 138.363L26.24 138.363L26.24 142.027L25.12 142.027L25.12 133.227L26.24 133.227ZM32.624 125.304L32.624 129.672L36 130.904L36 132.376L24.976 128.152L24.976 126.792L36 122.552L36 124.056L32.624 125.304ZM31.52 125.704L26.688 127.48L31.52 129.256L31.52 125.704ZM36.24 115.859C36.24 117.054 35.9787 118.062 35.456 118.883C34.9333 119.704 34.24 120.323 33.376 120.739C32.512 121.144 31.568 121.347 30.544 121.347C29.52 121.347 28.5813 121.134 27.728 120.707C26.8747 120.28 26.192 119.64 25.68 118.787C25.168 117.934 24.912 116.894 24.912 115.667C24.912 114.952 25.0293 114.286 25.264 113.667C25.488 113.038 25.808 112.504 26.224 112.067L27.2 112.675C26.848 113.016 26.5707 113.454 26.368 113.987C26.1547 114.52 26.048 115.08 26.048 115.667C26.048 116.563 26.2453 117.326 26.64 117.955C27.0347 118.584 27.5733 119.064 28.256 119.395C28.9387 119.715 29.7067 119.875 30.56 119.875C31.4347 119.875 32.2133 119.72 32.896 119.411C33.5787 119.102 34.1173 118.648 34.512 118.051C34.9067 117.443 35.104 116.712 35.104 115.859C35.104 114.547 34.6027 113.411 33.6 112.451L34.56 111.907C35.0507 112.387 35.456 112.963 35.776 113.635C36.0853 114.307 36.24 115.048 36.24 115.859ZM26.24 101.805L26.24 105.469L36 105.469L36 106.941L26.24 106.941L26.24 110.605L25.12 110.605L25.12 101.805L26.24 101.805ZM25.12 85.0186L36 85.0186L36 86.4746L32.208 86.4746L27.504 86.3946L32.496 89.7386L32.496 90.7466L27.456 94.1226L32.208 94.0266L36 94.0266L36 95.4826L25.12 95.4826L25.12 94.1706L30.944 90.2506L25.12 86.3306L25.12 85.0186ZM34.896 74.7793L36 74.7793L36 81.4513L25.12 81.4513L25.12 75.0993L26.224 75.0993L26.224 79.9793L29.696 79.9793L29.696 75.7393L30.8 75.7393L30.8 79.9793L34.896 79.9793L34.896 74.7793Z" fill="white"/>
<path d="M24.7917 34.17C24.7917 33.39 25.0217 32.75 25.4817 32.25C25.9417 31.73 26.6217 31.28 27.5217 30.9C28.4417 30.52 29.6917 30.12 31.2717 29.7V28.98C31.2717 28.32 31.1517 27.79 30.9117 27.39C30.6717 26.97 30.2017 26.76 29.5017 26.76C28.8417 26.76 28.2317 26.91 27.6717 27.21C27.1117 27.49 26.4717 28.02 25.7517 28.8L24.8217 27.21C25.4817 26.49 26.2217 25.92 27.0417 25.5C27.8617 25.06 28.7417 24.84 29.6817 24.84C31.0417 24.84 32.0117 25.19 32.5917 25.89C33.1717 26.57 33.4617 27.64 33.4617 29.1V34.17C33.4617 34.81 33.7917 35.13 34.4517 35.13C35.0317 35.13 35.5917 34.92 36.1317 34.5C36.6717 34.06 37.1217 33.41 37.4817 32.55C37.8417 31.67 38.0217 30.59 38.0217 29.31C38.0217 27.87 37.6617 26.58 36.9417 25.44C36.2217 24.3 35.2317 23.42 33.9717 22.8C32.7317 22.16 31.3517 21.84 29.8317 21.84C27.9917 21.84 26.3617 22.23 24.9417 23.01C23.5217 23.77 22.4117 24.87 21.6117 26.31C20.8117 27.75 20.4117 29.44 20.4117 31.38C20.4117 33.18 20.8117 34.77 21.6117 36.15C22.4117 37.51 23.4817 38.55 24.8217 39.27C26.1817 40.01 27.6617 40.38 29.2617 40.38C30.4417 40.38 31.5317 40.22 32.5317 39.9C33.5317 39.58 34.5417 39.08 35.5617 38.4L36.4617 40.02C35.3017 40.84 34.1517 41.43 33.0117 41.79C31.8917 42.17 30.6317 42.36 29.2317 42.36C27.3317 42.36 25.5217 41.92 23.8017 41.04C22.1017 40.16 20.7217 38.89 19.6617 37.23C18.6017 35.57 18.0717 33.61 18.0717 31.35C18.0717 29.05 18.5817 27.04 19.6017 25.32C20.6417 23.58 22.0517 22.24 23.8317 21.3C25.6117 20.36 27.6017 19.89 29.8017 19.89C31.8617 19.89 33.6917 20.3 35.2917 21.12C36.8917 21.92 38.1317 23.04 39.0117 24.48C39.9117 25.9 40.3617 27.5 40.3617 29.28C40.3617 30.9 40.0617 32.3 39.4617 33.48C38.8817 34.64 38.1117 35.52 37.1517 36.12C36.2117 36.7 35.2217 36.99 34.1817 36.99C33.5017 36.99 32.9217 36.84 32.4417 36.54C31.9617 36.24 31.6317 35.85 31.4517 35.37C30.0917 36.45 28.8617 36.99 27.7617 36.99C26.9017 36.99 26.1917 36.73 25.6317 36.21C25.0717 35.67 24.7917 34.99 24.7917 34.17ZM26.9817 34.02C26.9817 34.74 27.3917 35.1 28.2117 35.1C28.6717 35.1 29.1417 34.98 29.6217 34.74C30.1217 34.48 30.6717 34.11 31.2717 33.63V31.41C29.6517 31.87 28.5317 32.29 27.9117 32.67C27.2917 33.05 26.9817 33.5 26.9817 34.02Z" fill="white"/>
</svg>
