 <svg width="230" height="230" viewBox="0 0 230 230" fill="none" xmlns="http://www.w3.org/2000/svg">
<circle cx="115" cy="115" r="115" fill="#FF8A00"/>
<path d="M107.13 158.861C117.358 158.861 122.472 152.329 122.472 139.266V87.3165C122.472 84.9873 123.586 83.4684 125.814 82.7595C126.422 82.557 127.08 82.4557 127.789 82.4557C130.017 82.4557 131.586 83.3671 132.498 85.1899C132.801 85.7975 132.953 86.5063 132.953 87.3165V140.177C132.953 149.392 130.32 156.38 125.055 161.139C120.498 165.19 114.523 167.215 107.13 167.215C102.168 167.215 97.7128 165.899 93.7634 163.266C89.6115 160.734 86.7254 156.987 85.1052 152.025C84.7001 151.114 84.4976 150.152 84.4976 149.139C84.4976 148.025 84.9026 147.114 85.7128 146.405C86.6242 145.696 87.5356 145.342 88.4469 145.342C90.371 145.342 91.6875 146.152 92.3963 147.772C94.928 155.165 99.8393 158.861 107.13 158.861Z" fill="white"/>
</svg>

